<mxfile host="app.diagrams.net" modified="2023-12-31T10:28:27.838Z" agent="Mozilla/5.0 (Windows NT 10.0; Win64; x64; rv:121.0) Gecko/20100101 Firefox/121.0" etag="u4FCTuVYetpaK3LqcEFg" version="22.1.16" type="github">
  <diagram name="Seite-1" id="Uph73gleEDyKAeIzliLi">
    <mxGraphModel dx="1434" dy="774" grid="1" gridSize="10" guides="1" tooltips="1" connect="1" arrows="1" fold="1" page="1" pageScale="1" pageWidth="583" pageHeight="413" math="0" shadow="0">
      <root>
        <mxCell id="0" />
        <mxCell id="1" parent="0" />
        <mxCell id="LmvUL_w-2qDvA-CHAG-q-24" value="" style="rounded=1;whiteSpace=wrap;html=1;fillColor=none;strokeWidth=4;" parent="1" vertex="1">
          <mxGeometry x="200" y="40" width="550" height="850" as="geometry" />
        </mxCell>
        <mxCell id="LmvUL_w-2qDvA-CHAG-q-5" style="edgeStyle=orthogonalEdgeStyle;rounded=0;orthogonalLoop=1;jettySize=auto;html=1;exitX=0.5;exitY=1;exitDx=0;exitDy=0;entryX=0.5;entryY=0;entryDx=0;entryDy=0;" parent="1" source="LmvUL_w-2qDvA-CHAG-q-3" target="LmvUL_w-2qDvA-CHAG-q-4" edge="1">
          <mxGeometry relative="1" as="geometry" />
        </mxCell>
        <mxCell id="LmvUL_w-2qDvA-CHAG-q-3" value="Token von aktueller Position entfernen" style="rounded=1;whiteSpace=wrap;html=1;" parent="1" vertex="1">
          <mxGeometry x="325" y="320" width="130" height="60" as="geometry" />
        </mxCell>
        <mxCell id="LmvUL_w-2qDvA-CHAG-q-7" style="edgeStyle=orthogonalEdgeStyle;rounded=0;orthogonalLoop=1;jettySize=auto;html=1;exitX=0.5;exitY=1;exitDx=0;exitDy=0;entryX=0.5;entryY=0;entryDx=0;entryDy=0;" parent="1" source="LmvUL_w-2qDvA-CHAG-q-4" target="LmvUL_w-2qDvA-CHAG-q-6" edge="1">
          <mxGeometry relative="1" as="geometry" />
        </mxCell>
        <mxCell id="LmvUL_w-2qDvA-CHAG-q-4" value="Token auf neue Position setzen" style="rounded=1;whiteSpace=wrap;html=1;" parent="1" vertex="1">
          <mxGeometry x="325" y="432" width="130" height="60" as="geometry" />
        </mxCell>
        <mxCell id="49IbNY6AlsYL05EUb6Tz-3" style="edgeStyle=orthogonalEdgeStyle;rounded=0;orthogonalLoop=1;jettySize=auto;html=1;exitX=0.5;exitY=1;exitDx=0;exitDy=0;entryX=0.5;entryY=0;entryDx=0;entryDy=0;" edge="1" parent="1" source="LmvUL_w-2qDvA-CHAG-q-6" target="49IbNY6AlsYL05EUb6Tz-2">
          <mxGeometry relative="1" as="geometry" />
        </mxCell>
        <mxCell id="LmvUL_w-2qDvA-CHAG-q-6" value="" style="rhombus;whiteSpace=wrap;html=1;" parent="1" vertex="1">
          <mxGeometry x="365" y="540" width="50" height="50" as="geometry" />
        </mxCell>
        <mxCell id="LmvUL_w-2qDvA-CHAG-q-8" value="&lt;div style=&quot;font-size: 14px;&quot;&gt;&lt;font style=&quot;font-size: 14px;&quot;&gt;Sind alle Tokens&amp;nbsp;&lt;/font&gt;&lt;/div&gt;&lt;div style=&quot;font-size: 14px;&quot;&gt;&lt;font style=&quot;font-size: 14px;&quot;&gt;vertikal/horizontal&amp;nbsp;&lt;/font&gt;&lt;/div&gt;&lt;div style=&quot;font-size: 14px;&quot;&gt;&lt;font style=&quot;font-size: 14px;&quot;&gt;verbunden?&lt;/font&gt;&lt;/div&gt;" style="text;html=1;align=center;verticalAlign=middle;resizable=0;points=[];autosize=1;strokeColor=none;fillColor=none;" parent="1" vertex="1">
          <mxGeometry x="225" y="535" width="140" height="60" as="geometry" />
        </mxCell>
        <mxCell id="LmvUL_w-2qDvA-CHAG-q-15" style="edgeStyle=orthogonalEdgeStyle;rounded=0;orthogonalLoop=1;jettySize=auto;html=1;exitX=0.5;exitY=1;exitDx=0;exitDy=0;entryX=0.5;entryY=0;entryDx=0;entryDy=0;" parent="1" source="LmvUL_w-2qDvA-CHAG-q-10" target="LmvUL_w-2qDvA-CHAG-q-11" edge="1">
          <mxGeometry relative="1" as="geometry" />
        </mxCell>
        <mxCell id="LmvUL_w-2qDvA-CHAG-q-10" value="Token von neuer Position entfernen" style="rounded=1;whiteSpace=wrap;html=1;" parent="1" vertex="1">
          <mxGeometry x="540" y="530" width="110" height="60" as="geometry" />
        </mxCell>
        <mxCell id="LmvUL_w-2qDvA-CHAG-q-16" style="edgeStyle=orthogonalEdgeStyle;rounded=0;orthogonalLoop=1;jettySize=auto;html=1;exitX=0.5;exitY=1;exitDx=0;exitDy=0;entryX=0.5;entryY=0;entryDx=0;entryDy=0;" parent="1" source="LmvUL_w-2qDvA-CHAG-q-11" target="LmvUL_w-2qDvA-CHAG-q-12" edge="1">
          <mxGeometry relative="1" as="geometry" />
        </mxCell>
        <mxCell id="LmvUL_w-2qDvA-CHAG-q-11" value="Token auf alte Position setzen" style="rounded=1;whiteSpace=wrap;html=1;" parent="1" vertex="1">
          <mxGeometry x="540" y="630" width="110" height="60" as="geometry" />
        </mxCell>
        <mxCell id="LmvUL_w-2qDvA-CHAG-q-23" style="edgeStyle=orthogonalEdgeStyle;rounded=0;orthogonalLoop=1;jettySize=auto;html=1;exitX=0.5;exitY=1;exitDx=0;exitDy=0;entryX=1;entryY=0.5;entryDx=0;entryDy=0;" parent="1" source="LmvUL_w-2qDvA-CHAG-q-12" target="LmvUL_w-2qDvA-CHAG-q-20" edge="1">
          <mxGeometry relative="1" as="geometry" />
        </mxCell>
        <mxCell id="LmvUL_w-2qDvA-CHAG-q-12" value="Spielzug fehlgeschlagen" style="rounded=1;whiteSpace=wrap;html=1;" parent="1" vertex="1">
          <mxGeometry x="540" y="720" width="110" height="60" as="geometry" />
        </mxCell>
        <mxCell id="LmvUL_w-2qDvA-CHAG-q-22" style="edgeStyle=orthogonalEdgeStyle;rounded=0;orthogonalLoop=1;jettySize=auto;html=1;exitX=0.5;exitY=1;exitDx=0;exitDy=0;entryX=0.5;entryY=0;entryDx=0;entryDy=0;" parent="1" source="LmvUL_w-2qDvA-CHAG-q-13" target="LmvUL_w-2qDvA-CHAG-q-20" edge="1">
          <mxGeometry relative="1" as="geometry" />
        </mxCell>
        <mxCell id="LmvUL_w-2qDvA-CHAG-q-13" value="Ausgabe: Sprung von alter Position zu neuer Position" style="rounded=1;whiteSpace=wrap;html=1;" parent="1" vertex="1">
          <mxGeometry x="335" y="720" width="110" height="60" as="geometry" />
        </mxCell>
        <mxCell id="LmvUL_w-2qDvA-CHAG-q-14" style="edgeStyle=orthogonalEdgeStyle;rounded=0;orthogonalLoop=1;jettySize=auto;html=1;exitX=1;exitY=0.5;exitDx=0;exitDy=0;entryX=0.003;entryY=0.58;entryDx=0;entryDy=0;entryPerimeter=0;" parent="1" source="LmvUL_w-2qDvA-CHAG-q-6" target="LmvUL_w-2qDvA-CHAG-q-10" edge="1">
          <mxGeometry relative="1" as="geometry" />
        </mxCell>
        <mxCell id="LmvUL_w-2qDvA-CHAG-q-18" value="Ja" style="text;html=1;align=center;verticalAlign=middle;resizable=0;points=[];autosize=1;strokeColor=none;fillColor=none;" parent="1" vertex="1">
          <mxGeometry x="390" y="590" width="40" height="30" as="geometry" />
        </mxCell>
        <mxCell id="LmvUL_w-2qDvA-CHAG-q-19" value="Nein" style="text;html=1;align=center;verticalAlign=middle;resizable=0;points=[];autosize=1;strokeColor=none;fillColor=none;" parent="1" vertex="1">
          <mxGeometry x="415" y="540" width="50" height="30" as="geometry" />
        </mxCell>
        <mxCell id="LmvUL_w-2qDvA-CHAG-q-20" value="" style="ellipse;whiteSpace=wrap;html=1;aspect=fixed;" parent="1" vertex="1">
          <mxGeometry x="372.5" y="830" width="35" height="35" as="geometry" />
        </mxCell>
        <mxCell id="LmvUL_w-2qDvA-CHAG-q-21" value="" style="ellipse;whiteSpace=wrap;html=1;aspect=fixed;fillColor=#000000;" parent="1" vertex="1">
          <mxGeometry x="377.5" y="835" width="25" height="25" as="geometry" />
        </mxCell>
        <mxCell id="49IbNY6AlsYL05EUb6Tz-16" style="edgeStyle=orthogonalEdgeStyle;rounded=0;orthogonalLoop=1;jettySize=auto;html=1;exitX=1;exitY=0.5;exitDx=0;exitDy=0;entryX=0.5;entryY=0;entryDx=0;entryDy=0;" edge="1" parent="1" source="LmvUL_w-2qDvA-CHAG-q-2" target="49IbNY6AlsYL05EUb6Tz-1">
          <mxGeometry relative="1" as="geometry" />
        </mxCell>
        <mxCell id="LmvUL_w-2qDvA-CHAG-q-2" value="&lt;div&gt;toPosition&lt;/div&gt;" style="rounded=1;whiteSpace=wrap;html=1;" parent="1" vertex="1">
          <mxGeometry x="160" y="125" width="90" height="50" as="geometry" />
        </mxCell>
        <mxCell id="LmvUL_w-2qDvA-CHAG-q-27" value="&lt;div style=&quot;font-size: 15px;&quot;&gt;&lt;font style=&quot;font-size: 15px;&quot;&gt;&lt;b&gt;Spielzug &quot;Springen&quot;&lt;/b&gt;&lt;/font&gt;&lt;/div&gt;&lt;font style=&quot;font-size: 15px;&quot;&gt;&lt;b&gt;&lt;font style=&quot;font-size: 15px;&quot;&gt;toPosition: Position&lt;/font&gt;&lt;/b&gt;&lt;b&gt;&lt;br&gt;&lt;/b&gt;&lt;/font&gt;" style="text;html=1;align=center;verticalAlign=middle;resizable=0;points=[];autosize=1;strokeColor=none;fillColor=none;" parent="1" vertex="1">
          <mxGeometry x="245" y="50" width="170" height="50" as="geometry" />
        </mxCell>
        <mxCell id="49IbNY6AlsYL05EUb6Tz-7" style="edgeStyle=orthogonalEdgeStyle;rounded=0;orthogonalLoop=1;jettySize=auto;html=1;exitX=0.5;exitY=1;exitDx=0;exitDy=0;entryX=0.5;entryY=0;entryDx=0;entryDy=0;" edge="1" parent="1" source="49IbNY6AlsYL05EUb6Tz-1" target="LmvUL_w-2qDvA-CHAG-q-3">
          <mxGeometry relative="1" as="geometry" />
        </mxCell>
        <mxCell id="49IbNY6AlsYL05EUb6Tz-9" style="edgeStyle=orthogonalEdgeStyle;rounded=0;orthogonalLoop=1;jettySize=auto;html=1;exitX=1;exitY=0.5;exitDx=0;exitDy=0;entryX=0;entryY=0.5;entryDx=0;entryDy=0;" edge="1" parent="1" source="49IbNY6AlsYL05EUb6Tz-1" target="49IbNY6AlsYL05EUb6Tz-8">
          <mxGeometry relative="1" as="geometry" />
        </mxCell>
        <mxCell id="49IbNY6AlsYL05EUb6Tz-1" value="" style="rhombus;whiteSpace=wrap;html=1;" vertex="1" parent="1">
          <mxGeometry x="365" y="170" width="50" height="50" as="geometry" />
        </mxCell>
        <mxCell id="49IbNY6AlsYL05EUb6Tz-5" style="edgeStyle=orthogonalEdgeStyle;rounded=0;orthogonalLoop=1;jettySize=auto;html=1;exitX=0.5;exitY=1;exitDx=0;exitDy=0;entryX=0.5;entryY=0;entryDx=0;entryDy=0;" edge="1" parent="1" source="49IbNY6AlsYL05EUb6Tz-2" target="LmvUL_w-2qDvA-CHAG-q-13">
          <mxGeometry relative="1" as="geometry" />
        </mxCell>
        <mxCell id="49IbNY6AlsYL05EUb6Tz-2" value="&lt;div&gt;Token drehen&lt;/div&gt;&lt;div&gt;( Memberfunktion &quot;turn()&quot; )&lt;/div&gt;" style="rounded=1;whiteSpace=wrap;html=1;" vertex="1" parent="1">
          <mxGeometry x="310" y="630" width="160" height="60" as="geometry" />
        </mxCell>
        <mxCell id="49IbNY6AlsYL05EUb6Tz-6" value="&lt;div style=&quot;font-size: 14px;&quot;&gt;&lt;font style=&quot;font-size: 14px;&quot;&gt;Ist&amp;nbsp; zwischen&amp;nbsp;&lt;/font&gt;&lt;/div&gt;&lt;div style=&quot;font-size: 14px;&quot;&gt;&lt;font style=&quot;font-size: 14px;&quot;&gt;Start- und Zielposition&amp;nbsp;&lt;/font&gt;&lt;/div&gt;&lt;div style=&quot;font-size: 14px;&quot;&gt;&lt;font style=&quot;font-size: 14px;&quot;&gt;ein weiterer Token?&lt;/font&gt;&lt;/div&gt;" style="text;html=1;align=center;verticalAlign=middle;resizable=0;points=[];autosize=1;strokeColor=none;fillColor=none;" vertex="1" parent="1">
          <mxGeometry x="225" y="190" width="170" height="60" as="geometry" />
        </mxCell>
        <mxCell id="49IbNY6AlsYL05EUb6Tz-11" style="edgeStyle=orthogonalEdgeStyle;rounded=0;orthogonalLoop=1;jettySize=auto;html=1;exitX=0.5;exitY=1;exitDx=0;exitDy=0;entryX=0.5;entryY=0;entryDx=0;entryDy=0;" edge="1" parent="1" source="49IbNY6AlsYL05EUb6Tz-8" target="49IbNY6AlsYL05EUb6Tz-10">
          <mxGeometry relative="1" as="geometry" />
        </mxCell>
        <mxCell id="49IbNY6AlsYL05EUb6Tz-8" value="Fehlermeldung: Es darf nur über Tokens gesprungen werden" style="rounded=1;whiteSpace=wrap;html=1;" vertex="1" parent="1">
          <mxGeometry x="530" y="165" width="160" height="60" as="geometry" />
        </mxCell>
        <mxCell id="49IbNY6AlsYL05EUb6Tz-12" style="edgeStyle=orthogonalEdgeStyle;rounded=0;orthogonalLoop=1;jettySize=auto;html=1;exitX=1;exitY=0.5;exitDx=0;exitDy=0;entryX=1;entryY=0.5;entryDx=0;entryDy=0;" edge="1" parent="1" source="49IbNY6AlsYL05EUb6Tz-10" target="LmvUL_w-2qDvA-CHAG-q-20">
          <mxGeometry relative="1" as="geometry" />
        </mxCell>
        <mxCell id="49IbNY6AlsYL05EUb6Tz-10" value="Spielzug fehlgeschlagen" style="rounded=1;whiteSpace=wrap;html=1;" vertex="1" parent="1">
          <mxGeometry x="530" y="250" width="160" height="60" as="geometry" />
        </mxCell>
        <mxCell id="49IbNY6AlsYL05EUb6Tz-13" value="&lt;font style=&quot;font-size: 14px;&quot;&gt;Ja&lt;/font&gt;" style="text;html=1;align=center;verticalAlign=middle;resizable=0;points=[];autosize=1;strokeColor=none;fillColor=none;" vertex="1" parent="1">
          <mxGeometry x="390" y="228" width="40" height="30" as="geometry" />
        </mxCell>
        <mxCell id="49IbNY6AlsYL05EUb6Tz-14" value="&lt;font style=&quot;font-size: 14px;&quot;&gt;Nein&lt;/font&gt;" style="text;html=1;align=center;verticalAlign=middle;resizable=0;points=[];autosize=1;strokeColor=none;fillColor=none;" vertex="1" parent="1">
          <mxGeometry x="430" y="190" width="50" height="30" as="geometry" />
        </mxCell>
      </root>
    </mxGraphModel>
  </diagram>
</mxfile>
